<svg width="89" height="36" viewBox="0 0 89 36" fill="none" xmlns="http://www.w3.org/2000/svg">
<path d="M19.4499 0.794432H27.806V23.4346C27.806 26.1327 27.2426 28.4182 26.1157 30.291C24.9889 32.1479 23.4097 33.5525 21.3782 34.5048C19.3467 35.457 16.9581 35.9332 14.2124 35.9332C11.4984 35.9332 9.10981 35.457 7.04656 34.5048C4.99918 33.5525 3.39619 32.1479 2.2376 30.291C1.09487 28.4182 0.523513 26.1327 0.523513 23.4346V0.794432H8.90348V23.4346C8.90348 24.863 9.10981 26.0296 9.52246 26.9342C9.93511 27.823 10.5382 28.4737 11.3318 28.8864C12.1253 29.299 13.0855 29.5053 14.2124 29.5053C15.3551 29.5053 16.3153 29.299 17.093 28.8864C17.8707 28.4737 18.4579 27.823 18.8547 26.9342C19.2515 26.0296 19.4499 24.863 19.4499 23.4346V0.794432ZM56.9217 29.0292V35.457H38.4476V29.0292H56.9217ZM41.4235 0.794432V35.457H33.0673V0.794432H41.4235ZM54.541 14.5547V20.7683H38.4476V14.5547H54.541ZM56.9931 0.794432V7.24606H38.4476V0.794432H56.9931ZM77.6097 0.794432V35.457H69.2535V0.794432H77.6097ZM88.0371 0.794432V7.24606H59.0643V0.794432H88.0371Z" fill="#004A99"/>
</svg>
